<svg xmlns="http://www.w3.org/2000/svg" viewBox="0 0 48 48">
  <circle cx="24" cy="24" r="24" fill="#ff6b1a"/>
  <path d="M16.8 13.5c-.1 4.1-.3 8.3-.3 12.5 0 2.4.1 4.7.5 6.8.2 1.2.6 2.2 1.4 2.9.5.4 1.2.5 1.8.2.5-.2.8-.7.8-1.2" stroke="#fff" stroke-width="2.6" stroke-linecap="round" stroke-linejoin="round" fill="none"/>
  <path d="M22 22.5c0 4.6 0 9.2-.2 13.7 0 .4.1.8.3 1.1.3.3.7.4 1 .1.4-.3.5-.8.6-1.2.4-2.5.5-5.1.6-7.7.1-1.6.3-3.2 1.1-4.6.8-1.4 2.3-2.4 3.9-2.3 1.6.1 3 1.3 3.4 2.9.4 1.6-.1 3.4-1.3 4.5-1.2 1.1-2.9 1.5-4.4 1-.5-.2-1-.5-1.4-.9" stroke="#fff" stroke-width="2.6" stroke-linecap="round" stroke-linejoin="round" fill="none"/>
</svg>
